<svg xmlns="http://www.w3.org/2000/svg" width="512" height="512" style="shape-rendering:geometricPrecision;text-rendering:geometricPrecision;image-rendering:optimizeQuality;fill-rule:evenodd;clip-rule:evenodd">

  <style>
    @media (prefers-color-scheme: dark) {
      svg { filter: invert(0%) hue-rotate(0deg) saturate(100%) contrast(100%) brightness(1); }
    }
  </style><path fill="#f9f9f9" d="M-.5-.5h512v512H-.5z" style="opacity:1"/><path fill="#181818" d="M358.5 14.5q5.724 1.474 12 2 23.067 4.523 44 15 .71 2.11 3 2 37.065 21.566 58 59-.11 2.29 2 3 11.634 21.493 15 46a226.3 226.3 0 0 1 2 37q-11.255 99.779-105 135.5-76.337 22.67-140-24.5a523 523 0 0 0-19.5 19q2.134 7.666 1 16a31.9 31.9 0 0 1-7 11 8760 8760 0 0 0-78.5 79 230 230 0 0 0-18 18q-1.5.5-2 2-5.105 3.6-8 9a402113 402113 0 0 0-52 51q-8.265 2.565-17 2a227 227 0 0 1-31-31q-2.35-8.689 1-17a7719 7719 0 0 1 164-166.5 2.43 2.43 0 0 1 2-.5q7.5-2 15 0a8.4 8.4 0 0 0 4-.5 211 211 0 0 0 12-12.5q4.935-1.934 7-7-.533-1.533-2-2a212.3 212.3 0 0 1-19-34q.233-4.824-3-8-15.825-50.557 0-101 3.501-2.514 3-7 28.678-68.677 100-90 3.978.136 7-2l4-1q6.792-.405 13-2 16.5-2 33 0" style="opacity:1"/><path fill="#979797" d="M358.5 14.5q5.025-.247 10 .5 1.374.417 2 1.5-6.276-.526-12-2" style="opacity:1"/><path fill="#8b8c8c" d="M325.5 14.5q-6.208 1.595-13 2 6.067-2.516 13-2" style="opacity:1"/><path fill="#575757" d="M308.5 17.5q-3.022 2.136-7 2 3.022-2.136 7-2" style="opacity:1"/><path fill="#f4f4f4" d="M353.5 24.5q84.181 9.236 120.5 86a8.4 8.4 0 0 1 .5 4q-.11 2.29 2 3v1q.835 6.997 4 13 2.444 7.636 3 16 1.036 27.18-3 54a21.4 21.4 0 0 0-1 7q-2.922 2.73-3 7-24.727 66.728-92 90-5.367.073-10 2-5.31.379-10 2-3.161 1.452-7 1a268 268 0 0 1-49-3q-2.403-2.361-6-2-72.562-23.562-96-96a121 121 0 0 0-5-20v-7a319 319 0 0 1 2-45q15.303-68.66 78-100a106 106 0 0 0 18-7q7.036-3.136 15-4a265 265 0 0 1 39-2" style="opacity:1"/><path fill="#bfbfbf" d="M353.5 24.5a265 265 0 0 0-39 2q6.179-1.857 13-2.5 13.265-1.236 26 .5" style="opacity:1"/><path fill="#868686" d="M414.5 31.5q2.29-.11 3 2-2.29.11-3-2" style="opacity:1"/><path fill="#b0b0b0" d="M299.5 30.5a106 106 0 0 1-18 7q8.221-5.245 18-7" style="opacity:1"/><path fill="#181818" d="M392.5 285.5q-4.346.944-8 3-28.426 9.839-59 6.5a78 78 0 0 1-12-2.5q-3.022-2.135-7-2-3.022-2.135-7-2-2.514-3.501-7-3-48.853-21.856-68-72-.382-3.7-3-6a33.7 33.7 0 0 0-2-9 74 74 0 0 0-1.5-12q-.575-.834-1.5-1v-4a347 347 0 0 1 2-41q-.426-2.872 1-5 3.165-6.003 4-13 28.575-70.282 104-82.5 84.496-5.9 127.5 66.5 26.82 55.551 4 113-21.155 45.407-66.5 66" style="opacity:1"/><path fill="#bdbdbd" d="M353.5 50.5a185 185 0 0 0-41 3q6.136-2.375 13-3.5 14.264-1.236 28 .5" style="opacity:1"/><path fill="#f8f8f8" d="M353.5 50.5q35.709 3.855 64 26 1.627 3.13 5 4 18.5 17.997 28 42a128 128 0 0 0 6 17 197.6 197.6 0 0 1 1 47 25 25 0 0 1-1 8q-2.135 3.022-2 7-2.557 5.158-4 11-23.243 54.885-81 70a171 171 0 0 0-16 3q-84.976 3.2-119.5-74a411 411 0 0 1-5.5-19q-.462-5.79-2-11a122.6 122.6 0 0 1 0-31q1.902-3.608 2-8 13.697-58.672 68-84 8.123-1.04 15-5h1a185 185 0 0 1 41-3" style="opacity:1"/><path fill="#979797" d="M311.5 53.5q-6.877 3.96-15 5 6.969-3.716 15-5" style="opacity:1"/><path fill="#575757" d="M417.5 76.5q3.373.87 5 4-3.373-.87-5-4" style="opacity:1"/><path fill="#434343" d="M355.5 93.5a141.5 141.5 0 0 0-31 2q8.87-4.07 19-4 6.392-.134 12 2" style="opacity:1"/><path fill="#181818" d="M355.5 93.5q23.553 4.566 34 26-.361 3.597 2 6a63.4 63.4 0 0 1 0 22 49.1 49.1 0 0 1-7.5 15l-23 25a75.6 75.6 0 0 0-2 16 6.98 6.98 0 0 1-2.5 3.5q-13 1-26 0a11.4 11.4 0 0 0-2-2.5q-1.941-10.585 0-21 2.361-2.403 2-6 3.172-9.166 10-16 5.904-3.399 10-9a84 84 0 0 1 7.5-8q7.298-15.386-8.5-21-5.213-1.715-11-.5-.834.575-1 1.5-7.946 3.441-9 12-2.361 2.403-2 6a10.2 10.2 0 0 1-3 3 73.3 73.3 0 0 0-12-1 346 346 0 0 1-13-1.5l-2.5-2.5q-.9-27.71 22.5-42 3.7-.382 6-3a141.5 141.5 0 0 1 31-2" style="opacity:1"/><path fill="#7b7b7b" d="M475.5 92.5q2.11.71 2 3-2.11-.71-2-3" style="opacity:1"/><path fill="#5c5c5c" d="M324.5 95.5q-2.3 2.618-6 3 2.3-2.618 6-3" style="opacity:1"/><path fill="#6d6d6d" d="M356.5 103.5q-12-2-24 0 1.144-1.152 3-1.5a90.5 90.5 0 0 1 19 0q1.374.417 2 1.5" style="opacity:1"/><path fill="#f2f2f2" d="M356.5 103.5q24.645 6.901 27 32.5a46.7 46.7 0 0 1-4.5 16.5 220.4 220.4 0 0 1-24 26 30 30 0 0 0-3.5 6q-3.342 5.364-3 12h-10v-8q.511-8.782 5.5-16a569 569 0 0 1 22-23q6.275-8.939 3.5-19 .57-3.297-2-5-4.234-8.238-13-11-4.539-2.278-10-2-6.718-.621-12 3-11.545 6.059-14 19h-9q-1.063-1.356-3-1a52 52 0 0 0 1-7v-1q2.11-.71 2-3 4.038-8.797 12-14.5a39.2 39.2 0 0 1 11-4.5q12-2 24 0" style="opacity:1"/><path fill="#1c1c1c" d="M421.5 105.5a12 12 0 0 1 6 1q8.169 9.83 12.5 22 2.206 6.8-5 7-2.566.091-4-2a105 105 0 0 0-11-21q-1.25-4.006 1.5-7" style="opacity:1"/><path fill="#494949" d="M354.5 114.5q-11.18-2.316-22 1 5.282-3.621 12-3 5.461-.278 10 2" style="opacity:1"/><path fill="#686868" d="M201.5 109.5q.501 4.486-3 7 .653-3.986 3-7" style="opacity:1"/><path fill="#7d7d7d" d="M474.5 114.5q2.11.71 2 3-2.11-.71-2-3" style="opacity:1"/><path fill="#969696" d="M476.5 118.5q3.165 6.003 4 13-3.165-6.003-4-13" style="opacity:1"/><path fill="#9e9f9f" d="M349.5 123.5a45.8 45.8 0 0 0-12 1q.166-.925 1-1.5 5.787-1.215 11 .5" style="opacity:1"/><path fill="#747474" d="M309.5 122.5q.11 2.29-2 3-.11-2.29 2-3" style="opacity:1"/><path fill="#626262" d="M389.5 119.5q2.361 2.403 2 6-2.361-2.403-2-6" style="opacity:1"/><path fill="#787878" d="M450.5 122.5q4.737 7.7 6 17a128 128 0 0 1-6-17" style="opacity:1"/><path fill="#717272" d="M223.5 122.5q-.835 6.997-4 13 .835-6.997 4-13" style="opacity:1"/><path fill="#7b7c7c" d="M367.5 125.5q2.57 1.703 2 5-1.556-2.145-2-5" style="opacity:1"/><path fill="gray" d="M307.5 126.5a52 52 0 0 1-1 7q1.937-.356 3 1h-4q-.31-4.493 2-8" style="opacity:1"/><path fill="#7e7e7e" d="M391.5 125.5q1.083.627 1.5 2l.5 8.5q.322 6.2-2 11.5a63.4 63.4 0 0 0 0-22" style="opacity:1"/><path fill="#979797" d="M328.5 136.5q.361 3.597-2 6-.361-3.597 2-6" style="opacity:1"/><path fill="#616262" d="M311.5 144.5q6.051.007 12 1-6.115 1.773-12-1" style="opacity:1"/><path fill="#7b7b7b" d="M228.5 142.5q-.098 4.392-2 8-.31-4.493 2-8" style="opacity:1"/><path fill="#191919" d="M431.5 200.5q2.665-4.507 3-10a52 52 0 0 1 1-7q1.214-2.688 1.5-6 .75-13.491.5-27 4.702-4.27 8.5 1 4.101 33.393-10 64a141.4 141.4 0 0 1-11.5 16.5q-3.301 1.237-5.5-1.5-1.307-8.249 5-14a402 402 0 0 1 7.5-16" style="opacity:1"/><path fill="#444" d="M350.5 152.5q-4.096 5.601-10 9 4.096-5.601 10-9" style="opacity:1"/><path fill="#d2d2d2" d="M483.5 147.5q1.74 18.74.5 38-.377 8.487-3.5 16a288 288 0 0 0 3-54" style="opacity:1"/><path fill="#444" d="M218.5 140.5a347 347 0 0 0-2 41q-1.737-14.237-.5-29 .502-6.354 2.5-12" style="opacity:1"/><path fill="#b1b1b1" d="M456.5 139.5q3.636 12.536 3 26 .303 10.854-2 21a197.6 197.6 0 0 0-1-47" style="opacity:1"/><path fill="#a3a3a3" d="M492.5 141.5q2.194 4.055 2.5 9 1.237 14.264-.5 28a226.3 226.3 0 0 0-2-37" style="opacity:1"/><path fill="#969696" d="M437.5 150.5q.25 13.509-.5 27-.286 3.312-1.5 6a713 713 0 0 1 2-33" style="opacity:1"/><path fill="#b5b5b5" d="M203.5 137.5a319 319 0 0 0-2 45q-1.739-16.738-.5-34 .628-5.837 2.5-11" style="opacity:1"/><path fill="#8e8e8e" d="M330.5 177.5q.361 3.597-2 6-.361-3.597 2-6" style="opacity:1"/><path fill="#565656" d="M216.5 185.5q.925.166 1.5 1a74 74 0 0 1 1.5 12q-2.165-6.172-3-13" style="opacity:1"/><path fill="#676767" d="M226.5 181.5q1.538 5.21 2 11-1.083-.626-1.5-2a41 41 0 0 1-.5-9" style="opacity:1"/><path fill="#767676" d="M434.5 190.5q-.335 5.493-3 10 .335-5.493 3-10" style="opacity:1"/><path fill="#868686" d="M351.5 184.5a92 92 0 0 1-2 12.5 72.4 72.4 0 0 1-12 .5q-.465-4.82 1-9v8h10q-.342-6.636 3-12" style="opacity:1"/><path fill="#828484" d="M456.5 194.5q.135 3.978-2 7-.135-3.978 2-7" style="opacity:1"/><path fill="#787878" d="M454.5 201.5q-.265 6.311-4 11 1.443-5.842 4-11" style="opacity:1"/><path fill="#5e5e5e" d="M201.5 189.5a121 121 0 0 1 5 20q-1.94-2.013-2.5-5a241 241 0 0 0-2.5-15" style="opacity:1"/><path fill="#717171" d="M221.5 207.5q2.618 2.3 3 6-2.618-2.3-3-6" style="opacity:1"/><path fill="#999" d="M479.5 208.5q-.653 3.986-3 7 .078-4.27 3-7" style="opacity:1"/><path fill="#181818" d="M330.5 215.5q13.01-.25 26 .5l2.5 2.5q1 12 0 24a4.46 4.46 0 0 1-1.5 2 125.3 125.3 0 0 1-27 .5 4.46 4.46 0 0 0-2-1.5 85 85 0 0 1 0-26q1.533-.533 2-2" style="opacity:1"/><path fill="#626262" d="M198.5 217.5q3.233 3.176 3 8-2.057-3.654-3-8" style="opacity:1"/><path fill="#8c8d8d" d="M337.5 225.5h12v11h-12z" style="opacity:1"/><path fill="#f9faf9" d="M338.5 226.5h10v9h-10z" style="opacity:1"/><path fill="#585858" d="M220.5 259.5q1.467.467 2 2-2.065 5.066-7 7a31.5 31.5 0 0 1 4.5-5 8.4 8.4 0 0 0 .5-4" style="opacity:1"/><path fill="#f1f1f1" d="M226.5 270.5q8.549 4.287 14 12.5a157 157 0 0 1-18 18.5 71 71 0 0 1-12-12.5 141.4 141.4 0 0 1 16-18.5" style="opacity:1"/><path fill="#464747" d="M199.5 281.5q-7.5-2-15 0 3.201-2.3 7.5-2 4.299-.3 7.5 2" style="opacity:1"/><path fill="#4b4b4b" d="M369.5 282.5q-2.289 2.445-6 2.5-4.975.747-10 .5a171 171 0 0 1 16-3" style="opacity:1"/><path fill="#595959" d="M292.5 285.5q4.486-.501 7 3-3.986-.653-7-3" style="opacity:1"/><path fill="#969696" d="M392.5 285.5q-3.176 3.232-8 3 3.654-2.056 8-3" style="opacity:1"/><path fill="#707070" d="M299.5 288.5q3.978-.135 7 2-3.978.135-7-2" style="opacity:1"/><path fill="#919191" d="M196.5 290.5a29.2 29.2 0 0 0-9 1q.166-.926 1-1.5 4.3-1.201 8 .5" style="opacity:1"/><path fill="#f4f4f4" d="M196.5 290.5a73 73 0 0 1 7.5 7q1 1.5 0 3a2823 2823 0 0 0-44.5 45q-4.5 3.5-8 8l-95 96a57.5 57.5 0 0 0-9 9 102 102 0 0 1-12 12 36.4 36.4 0 0 1-8.5-9q-1.225-5.197 1-10a36018 36018 0 0 0 159.5-160 29.2 29.2 0 0 1 9-1" style="opacity:1"/><path fill="#5f5f5f" d="M306.5 290.5q3.978-.135 7 2-3.978.135-7-2" style="opacity:1"/><path fill="#848484" d="M302.5 305.5q3.597-.361 6 2-3.597.361-6-2" style="opacity:1"/><path fill="#7c7c7c" d="M384.5 305.5q-4.567 2.267-10 2 4.633-1.927 10-2" style="opacity:1"/><path fill="#f3f3f3" d="M220.5 314.5a21.4 21.4 0 0 1 1 7 80 80 0 0 1-6.5 9 13520 13520 0 0 0-97.5 98q-4.5 3.5-8 8a3275 3275 0 0 1-48 48.5q-11.236 5.78-17.5-5.5-1-1.5 0-3a18474 18474 0 0 1 113.5-115q7-4 11-11a2637 2637 0 0 1 43-43.5q5.464 2.183 9 7.5" style="opacity:1"/><path fill="#9f9f9f" d="M308.5 307.5a268 268 0 0 0 49 3q-15.738 1.738-32 .5-8.86-1.003-17-3.5" style="opacity:1"/><path fill="#959595" d="M374.5 307.5q-4.51 2.512-10 2 4.69-1.621 10-2" style="opacity:1"/><path fill="#5b5b5b" d="M220.5 314.5q2.24 1.218 2 4-.03 1.839-1 3a21.4 21.4 0 0 0-1-7" style="opacity:1"/><path fill="#434444" d="M159.5 345.5q-2.5 5.5-8 8 3.5-4.5 8-8" style="opacity:1"/><path fill="#b5b5b5" d="M168.5 350.5q-4 7-11 11 5-6 11-11" style="opacity:1"/><path fill="silver" d="M145.5 414.5q-7.5 10.5-18 18a230 230 0 0 1 18-18" style="opacity:1"/><path fill="#444" d="M117.5 428.5q-2.5 5.5-8 8 3.5-4.5 8-8" style="opacity:1"/><path fill="#b1b1b1" d="M125.5 434.5q-2.895 5.4-8 9 2.895-5.4 8-9" style="opacity:1"/><path fill="#444545" d="M56.5 449.5q-3 6-9 9a57.5 57.5 0 0 1 9-9" style="opacity:1"/><path fill="#999" d="M18.5 448.5q-3.35 8.311-1 17-3.707-7.689-.5-16 .575-.834 1.5-1" style="opacity:1"/><path fill="#8c8c8c" d="M65.5 494.5q-1.27 2.2-4 2.5-6.78 1.22-13-.5 8.735.565 17-2" style="opacity:1"/></svg>