<svg xmlns:inkscape="http://www.inkscape.org/namespaces/inkscape" xmlns:sodipodi="http://sodipodi.sourceforge.net/DTD/sodipodi-0.dtd" xmlns="http://www.w3.org/2000/svg" xmlns:svg="http://www.w3.org/2000/svg" viewBox="0 0 26.458333 33.07291625" version="1.1" xml:space="preserve" x="0px" y="0px"><g><path style="" d="m 16.594497,22.439028 c -0.01784,-0.0069 -0.17095,-0.09136 -0.458637,-0.252893 -0.05203,-0.02921 -0.239064,-0.133742 -0.41564,-0.232289 -0.176575,-0.09855 -0.407469,-0.227513 -0.5131,-0.286589 -0.10563,-0.05907 -0.335235,-0.187376 -0.510234,-0.285113 -0.174998,-0.09774 -0.680645,-0.380203 -1.12366,-0.627705 -1.309486,-0.731575 -1.877168,-1.048706 -2.081065,-1.162575 -0.10563,-0.05899 -0.226882,-0.126733 -0.269449,-0.15054 -0.04257,-0.02381 -0.08424,-0.0464 -0.0926,-0.0502 -0.01667,-0.0075 0.0369,-0.05257 -0.618282,0.51921 -0.08356,0.07292 -0.398298,0.347474 -0.6994219,0.610119 -0.6946533,0.605886 -0.8036572,0.701 -1.2612499,1.10053 -0.2065334,0.180326 -0.3871201,0.334806 -0.4013094,0.343293 -0.022265,0.01331 -0.032079,0.01543 -0.071663,0.01543 -0.037596,0 -0.053627,-0.0031 -0.08886,-0.0172 -0.077542,-0.03102 -0.077855,-0.0315 -0.2478414,-0.378381 C 7.6595818,21.417008 7.5815123,21.257059 7.5679921,21.228682 7.5544667,21.200304 7.4873444,21.063572 7.4188354,20.924834 7.3503212,20.786097 7.2755329,20.633886 7.252633,20.58659 7.2297329,20.53929 7.1652373,20.407721 7.1093062,20.294209 7.0533701,20.180695 6.9772681,20.025906 6.9401889,19.950231 6.8207677,19.706501 6.7199106,19.501029 6.3239233,18.694714 5.8087494,17.645717 5.4901335,16.996675 5.3206159,16.650914 5.02552,16.049007 4.9218798,15.838175 4.9009232,15.797122 l -0.021728,-0.04258 -1.8976086,-1.174019 c -1.0436872,-0.645709 -1.9086481,-1.18339 -1.9221345,-1.194845 -0.041258,-0.03505 -0.058991,-0.08512 -0.050395,-0.142401 0.00488,-0.03247 0.040966,-0.08801 0.070532,-0.108475 0.020846,-0.01443 0.2432268,-0.09903 2.3004362,-0.875152 0.2853597,-0.107656 0.5652704,-0.213345 0.622027,-0.234862 0.1869729,-0.07089 0.3266622,-0.123654 0.8513428,-0.321599 0.5095539,-0.192237 0.7119273,-0.268623 0.9230065,-0.348395 0.058334,-0.02204 0.4685295,-0.176905 0.911542,-0.344136 0.9936836,-0.375093 2.4651877,-0.930624 3.0470696,-1.1503445 0.2396376,-0.090488 0.5440578,-0.2053943 0.6764888,-0.2553478 0.317952,-0.1199318 0.6347,-0.2394838 0.794016,-0.2996886 0.22814,-0.086213 1.862745,-0.7032853 2.273119,-0.8581139 0.421382,-0.1589827 0.879212,-0.3318758 0.994669,-0.3756234 0.06148,-0.023296 0.345268,-0.1304414 0.630625,-0.2380971 C 15.616653,7.64001 15.798238,7.57147 16.04987,7.4763926 c 0.07095,-0.026806 0.46179,-0.1743828 0.868545,-0.3279482 0.958807,-0.3619885 1.056753,-0.3989617 1.401708,-0.5291199 0.505056,-0.1905671 0.908007,-0.3426754 1.559366,-0.5886376 0.717745,-0.2710301 0.708655,-0.267598 1.837415,-0.6937681 0.457203,-0.1726201 0.925443,-0.349397 1.040532,-0.3928379 0.305058,-0.1151453 1.666813,-0.6292363 1.814482,-0.6850055 0.06937,-0.026196 0.243507,-0.092198 0.386975,-0.1466666 0.238987,-0.090734 0.263973,-0.09905 0.298114,-0.099226 0.06542,-3.34e-4 0.115058,0.032568 0.141772,0.093975 0.0075,0.017363 0.01759,0.038017 0.02231,0.045898 0.02617,0.043681 0.03202,0.064313 0.02991,0.1053531 -0.002,0.037543 -0.0061,0.049158 -0.05164,0.1440305 -0.02724,0.056757 -0.08044,0.1676891 -0.118208,0.2465174 -0.03776,0.078828 -0.202826,0.4232361 -0.366792,0.7653504 -0.163967,0.3421144 -0.327782,0.6839421 -0.364036,0.7596177 -0.03626,0.075675 -0.127122,0.2652928 -0.201932,0.4213723 -0.07481,0.15608 -0.179291,0.374076 -0.232181,0.4844354 -0.05289,0.1103593 -0.141309,0.2948176 -0.196486,0.4099068 -0.371113,0.7740646 -0.570532,1.1902197 -0.626362,1.3071151 -0.03539,0.074099 -0.155306,0.3243423 -0.266483,0.5560973 -0.111178,0.231755 -0.229844,0.4794189 -0.263702,0.5503646 -0.03386,0.070945 -0.138338,0.2889416 -0.232178,0.4844356 -0.09384,0.195493 -0.18289,0.381241 -0.197888,0.412773 -0.015,0.03154 -0.04398,0.09216 -0.06439,0.134724 -0.02042,0.04257 -0.110675,0.230896 -0.200568,0.418507 -0.08989,0.187612 -0.342143,0.713898 -0.560557,1.169524 -0.218414,0.455627 -0.441912,0.921929 -0.496663,1.036226 -0.05475,0.114297 -0.144981,0.302625 -0.200509,0.418506 -0.05553,0.115882 -0.144224,0.300988 -0.197101,0.411347 -0.05288,0.11036 -0.141909,0.296108 -0.197848,0.412774 -0.05593,0.116665 -0.129457,0.270165 -0.163378,0.34111 -0.03392,0.07095 -0.108056,0.225736 -0.164745,0.343978 -0.09768,0.203735 -0.490084,1.022455 -0.629241,1.312848 -0.08031,0.167597 -0.305008,0.636393 -0.432783,0.902942 -0.05291,0.11036 -0.185797,0.387691 -0.29532,0.616293 -0.109524,0.228602 -0.244269,0.509804 -0.299436,0.624894 -0.193221,0.403096 -0.233446,0.487039 -0.394224,0.822679 -0.08911,0.186035 -0.207776,0.4337 -0.263694,0.550365 -0.05592,0.116666 -0.190684,0.397867 -0.29948,0.624893 -0.108795,0.227025 -0.242343,0.505646 -0.296772,0.61916 -0.05443,0.113512 -0.116873,0.243793 -0.138765,0.289514 -0.282794,0.590622 -0.25986,0.549422 -0.321566,0.577671 -0.03742,0.01714 -0.0925,0.02196 -0.121572,0.01065 z m 0.03418,-0.449539 c 0.02353,-0.04953 0.0954,-0.19969 0.159709,-0.333698 0.06431,-0.134008 0.142132,-0.296538 0.172933,-0.361177 0.0308,-0.06464 0.102411,-0.214269 0.159135,-0.332512 0.09964,-0.207703 0.23229,-0.484492 0.725336,-1.513501 0.127663,-0.26644 0.261795,-0.546352 0.29807,-0.622027 0.03627,-0.07568 0.200718,-0.418793 0.36543,-0.762484 0.428543,-0.894208 0.48021,-1.002018 0.592091,-1.235454 0.05516,-0.115088 0.26471,-0.55237 0.465665,-0.971736 0.200956,-0.419366 0.409913,-0.855359 0.464349,-0.968871 0.05443,-0.113513 0.143447,-0.299261 0.197803,-0.412773 0.05436,-0.113513 0.143374,-0.29926 0.197817,-0.412773 0.05444,-0.113512 0.202196,-0.421803 0.328337,-0.685089 0.126142,-0.263286 0.365384,-0.762484 0.531648,-1.109328 0.166265,-0.346845 0.34491,-0.719631 0.396991,-0.828413 0.05208,-0.108783 0.110765,-0.231326 0.130412,-0.272316 0.08657,-0.180617 0.167554,-0.34962 0.20055,-0.418507 0.01963,-0.04099 0.09382,-0.195781 0.164865,-0.343977 0.07104,-0.148197 0.219409,-0.4577773 0.329703,-0.6879557 0.297712,-0.6213034 0.711206,-1.484072 0.828404,-1.7284879 0.05669,-0.1182425 0.13084,-0.2730325 0.164762,-0.3439777 0.06861,-0.1434836 0.195287,-0.4077969 0.39568,-0.8255463 0.07336,-0.1529267 0.161075,-0.336095 0.194927,-0.4070406 0.03385,-0.070945 0.231131,-0.4824286 0.438398,-0.9144071 0.207267,-0.4319787 0.383173,-0.7993849 0.390903,-0.8164578 l 0.01405,-0.031039 -0.02185,0.016523 c -0.01202,0.00909 -0.220492,0.1689348 -0.463283,0.3552172 -0.242791,0.1862824 -0.542052,0.4157982 -0.665023,0.5100339 -0.122972,0.094237 -0.277761,0.2129708 -0.343978,0.2638525 -0.06621,0.050882 -0.29324,0.2250149 -0.5045,0.3869629 -0.211261,0.1619475 -0.438286,0.3360676 -0.504501,0.3869342 -0.06621,0.050866 -0.192628,0.1479825 -0.280915,0.2158139 -0.08829,0.06783 -0.237918,0.1826043 -0.332512,0.2550529 -0.237797,0.1821258 -0.874399,0.6703907 -1.269851,0.9739576 -0.181299,0.139178 -0.667598,0.5122614 -1.080658,0.829074 -0.41306,0.3168127 -1.056728,0.8105321 -1.430375,1.097156 -0.373645,0.286622 -0.734821,0.56366 -0.802614,0.615639 -0.171492,0.131489 -0.585918,0.449405 -0.923007,0.708062 -0.156079,0.119764 -0.415353,0.318663 -0.576163,0.442 -0.160809,0.123337 -0.443301,0.340055 -0.627759,0.481597 -0.184458,0.141541 -0.428252,0.328538 -0.541765,0.415548 -0.194939,0.149424 -0.921403,0.706647 -1.020467,0.782733 -0.08308,0.06381 -0.606105,0.465069 -1.034799,0.79389 -0.231756,0.177762 -0.609701,0.467689 -0.839879,0.644282 -0.230179,0.176593 -0.550078,0.421997 -0.710887,0.545343 -0.16081,0.123346 -0.425243,0.326196 -0.587629,0.450777 -0.162387,0.124581 -0.4461686,0.342201 -0.6306269,0.4836 -0.1844578,0.141399 -0.3727855,0.285899 -0.4185062,0.321111 -0.076619,0.05901 -0.5476239,0.420279 -0.9029376,0.692575 -0.081986,0.06282 -0.1496256,0.11587 -0.1503189,0.117877 -4.883e-4,0.002 0.1721543,0.100254 0.3841075,0.218327 0.2119504,0.118073 0.4898508,0.273149 0.6175525,0.344613 0.1277017,0.07146 0.4321222,0.241581 0.6764892,0.378038 0.2443674,0.136458 0.6855184,0.382858 0.9803364,0.547557 0.294818,0.164697 1.03136,0.576114 1.636761,0.914258 0.605401,0.338144 1.143296,0.638707 1.195322,0.66792 0.05203,0.02921 0.326779,0.182758 0.610561,0.341214 0.553165,0.308871 1.290878,0.720936 1.570831,0.877419 0.09459,0.05287 0.275183,0.154131 0.401308,0.225016 0.126125,0.07089 0.231897,0.129048 0.235051,0.129253 0.0032,1.81e-4 0.02498,-0.04015 0.04851,-0.08968 z M 9.4139633,20.45747 c 0.5833292,-0.508775 1.1289367,-0.984539 1.2124627,-1.057252 0.08353,-0.07271 0.16321,-0.142723 0.177076,-0.155576 l 0.02521,-0.02336 -0.179942,-0.100599 C 10.454574,19.01211 9.554212,18.50919 8.7288732,18.048268 8.4466686,17.890666 8.2044523,17.755129 8.1906147,17.747073 l -0.025146,-0.01465 0.0039,0.214564 c 0.00195,0.118009 0.010107,0.628626 0.017724,1.134703 0.00762,0.506076 0.015332,1.002695 0.017138,1.103595 0.00195,0.1009 0.00571,0.353724 0.00869,0.56183 0.00293,0.208107 0.00708,0.461449 0.00913,0.562982 l 0.0039,0.184607 0.063797,-0.05609 c 0.035106,-0.03085 0.541065,-0.472365 1.1243936,-0.98114 z m -1.5069607,0.465935 c -0.00195,-0.160021 -0.00517,-0.356734 -0.00688,-0.437138 -0.00195,-0.08041 -0.010595,-0.653129 -0.019775,-1.272718 -0.00918,-0.61959 -0.018115,-1.200052 -0.019873,-1.289916 -0.00195,-0.08986 -0.0039,-0.235625 -0.00439,-0.323913 -9.758e-4,-0.155131 -9.758e-4,-0.161458 0.011523,-0.188378 0.00703,-0.01532 0.019872,-0.03634 0.028564,-0.0467 0.00869,-0.01037 0.022216,-0.02956 0.030029,-0.04264 0.015136,-0.0253 -0.00977,-0.0058 0.842857,-0.659635 0.2317551,-0.177715 0.5529441,-0.424102 0.7137539,-0.547525 0.1608049,-0.123424 0.5374605,-0.412376 0.8370075,-0.642117 0.299547,-0.229741 0.637506,-0.488983 0.751018,-0.576094 0.113513,-0.08711 0.396005,-0.303822 0.627759,-0.481582 0.681638,-0.522826 0.981033,-0.752478 1.424642,-1.092777 0.723009,-0.554629 1.25094,-0.959594 1.553632,-1.191759 0.16081,-0.12334 0.425242,-0.326172 0.587628,-0.450737 0.162386,-0.124564 0.506794,-0.388754 0.765351,-0.587086 0.556802,-0.427111 1.142125,-0.87622 1.494189,-1.1464677 0.139663,-0.1072061 0.281436,-0.2159258 0.315052,-0.2415991 0.03362,-0.025673 0.26203,-0.2008412 0.507583,-0.3892622 0.245556,-0.1884206 0.576316,-0.4421678 0.735023,-0.5638824 0.158708,-0.1217135 0.367675,-0.2820297 0.464371,-0.356258 0.0967,-0.074229 0.31512,-0.241789 0.485389,-0.3723568 0.170269,-0.1305684 0.398584,-0.3057085 0.507367,-0.3892008 0.108783,-0.083492 0.295821,-0.2269709 0.41564,-0.3188414 0.119819,-0.091871 0.385541,-0.2956985 0.590495,-0.4529498 0.395735,-0.3036294 1.012904,-0.7770518 1.13226,-0.8685419 0.03941,-0.030214 0.187755,-0.1439812 0.329646,-0.2528191 0.14189,-0.1088388 0.392134,-0.3005952 0.556097,-0.4261266 0.163963,-0.1255313 0.301983,-0.2322052 0.306713,-0.2370528 0.0047,-0.00483 -0.003,-0.00224 -0.0172,0.00574 -0.07836,0.044204 -0.738133,0.4179184 -0.842746,0.4773535 -0.06779,0.038515 -0.174855,0.09915 -0.237917,0.1347436 -0.06306,0.03559 -0.161097,0.091093 -0.217853,0.1233351 -0.162053,0.092058 -0.575379,0.3262588 -1.117928,0.6334457 -0.274321,0.1553187 -0.574873,0.325603 -0.66789,0.3784084 -0.09302,0.052806 -0.50966,0.2888895 -0.925872,0.5246318 -0.416211,0.2357389 -0.978614,0.5543197 -1.249783,0.7079534 -2.735766,1.5499817 -3.65515,2.0708471 -4.285389,2.4278321 -0.847027,0.479779 -1.217811,0.689851 -1.335779,0.756803 -0.112183,0.06367 -0.461013,0.261331 -0.819814,0.464545 -0.162386,0.09197 -0.540332,0.306095 -0.839879,0.475834 -0.299547,0.16974 -0.686522,0.388964 -0.859944,0.487165 -0.597231,0.338188 -1.4448808,0.818416 -1.5278345,0.865579 -0.045721,0.02599 -0.3849679,0.218224 -0.7538804,0.427176 -0.3689175,0.208952 -0.7687913,0.435517 -0.8886129,0.503477 -0.1198166,0.06796 -0.2823471,0.160033 -0.3611735,0.204607 -0.137868,0.07796 -0.3976522,0.225128 -1.3128513,0.743754 -0.2333297,0.132224 -0.424927,0.241083 -0.4257619,0.241908 -9.758e-4,8.31e-4 0.040087,0.08638 0.090994,0.190118 0.050888,0.10374 0.1240987,0.253113 0.1626867,0.331942 0.038573,0.07883 0.1792391,0.365189 0.3125418,0.636359 0.1333076,0.271169 0.2726159,0.554951 0.309578,0.630626 0.036962,0.07568 0.1775546,0.362036 0.3124295,0.636358 0.1348749,0.274322 0.2728991,0.555524 0.3067265,0.624893 0.033837,0.06937 0.2801059,0.571147 0.5472875,1.115061 0.2671863,0.543915 0.5298123,1.078585 0.5836099,1.188157 0.053797,0.109571 0.099075,0.19922 0.1006129,0.19922 0.00146,0 9.758e-4,-0.130926 -9.758e-4,-0.290948 z m -2.31526,-5.849794 c 0.3459298,-0.195998 0.6663668,-0.377588 0.7120885,-0.403532 0.1583558,-0.08986 1.0373887,-0.58788 1.7026912,-0.964672 0.1308514,-0.07411 0.2843539,-0.161126 0.3411104,-0.193369 0.056757,-0.03225 0.3276391,-0.185705 0.6019611,-0.341024 0.2743224,-0.155319 0.5361754,-0.303661 0.5818955,-0.329648 0.045721,-0.02598 0.3075737,-0.174328 0.5818957,-0.329648 0.274322,-0.15532 0.574872,-0.325587 0.66789,-0.378372 0.177209,-0.100561 0.734971,-0.416582 1.269851,-0.719481 0.173422,-0.09821 0.414636,-0.234867 0.536032,-0.303687 0.121395,-0.06882 0.36648,-0.207623 0.544632,-0.308452 0.178151,-0.100827 0.36132,-0.204597 0.407039,-0.230599 0.04572,-0.026 0.655852,-0.371707 1.355846,-0.7682336 0.699995,-0.3965253 1.348823,-0.7641425 1.44184,-0.8169255 0.09302,-0.052784 0.35358,-0.2004378 0.579029,-0.3281195 0.538406,-0.3049238 1.842621,-1.0437875 3.101532,-1.7570811 0.556527,-0.3153259 1.400134,-0.7932438 1.87468,-1.062041 1.219772,-0.6909151 1.227381,-0.6952484 1.22496,-0.6976703 -0.0012,-0.00122 -0.02642,0.0071 -0.05605,0.018442 -0.02962,0.011342 -0.395686,0.1496759 -0.813476,0.3074047 -0.890507,0.3361956 -0.963183,0.3636305 -1.163791,0.439328 -0.129947,0.049035 -1.06819,0.4032985 -1.38451,0.5227665 -0.05676,0.021435 -0.193488,0.073034 -0.303847,0.114663 -0.11036,0.04163 -0.443158,0.1672623 -0.739553,0.2791846 -0.674989,0.2548849 -1.638706,0.6186985 -1.929141,0.7282708 -0.121395,0.045799 -0.294245,0.1110428 -0.384108,0.1449859 -0.08986,0.033944 -0.342688,0.1293819 -0.56183,0.2120856 -0.219144,0.082704 -0.588059,0.2219886 -0.819814,0.3095218 -0.231756,0.087533 -0.61099,0.2307233 -0.842745,0.3182004 -0.231755,0.087477 -0.610991,0.2306623 -0.842746,0.31819 -0.23175,0.087528 -0.600667,0.2267965 -0.819809,0.3094866 -0.577187,0.2177931 -1.018498,0.3844182 -1.146589,0.4329181 -0.06148,0.023281 -0.265292,0.1002458 -0.452904,0.1710333 -0.376678,0.1421261 -0.9153219,0.3454827 -1.4074412,0.5313587 -0.1765756,0.06669 -0.4397181,0.166015 -0.5847622,0.220717 -0.3801887,0.143381 -2.3525124,0.887881 -2.880816,1.087432 -0.083557,0.03156 -0.1880378,0.07099 -0.2321823,0.08763 -0.072088,0.02717 -0.3968074,0.149755 -1.886144,0.712054 -0.2459466,0.09286 -0.6238922,0.23557 -0.8398785,0.317142 -0.5565744,0.210201 -1.2722218,0.480279 -1.4090354,0.531755 -0.070381,0.02649 -0.1133617,0.04544 -0.1089236,0.04807 0.0039,0.0024 0.7799824,0.482913 1.724341,1.067841 0.9443635,0.584929 1.7203568,1.062363 1.7244241,1.060968 0.0039,-0.0014 0.2904329,-0.162901 0.6363577,-0.358902 z" fill="#000000" stroke-width="0.00573297"/></g><text x="0" y="41.458332999999996" fill="#000000" font-size="5px" font-weight="bold" font-family="'Helvetica Neue', Helvetica, Arial-Unicode, Arial, Sans-serif">Created by Geipenko</text><text x="0" y="46.458332999999996" fill="#000000" font-size="5px" font-weight="bold" font-family="'Helvetica Neue', Helvetica, Arial-Unicode, Arial, Sans-serif">from the Noun Project</text></svg>